<svg xmlns="http://www.w3.org/2000/svg" width="164" height="26" fill="none" viewBox="0 0 164 26">
	<path fill="currentColor" d="m161.315 20.787.062.827H164c-.013-.268-.031-.578-.049-.933a52.124 52.124 0 0 1-.031-1.131 34.894 34.894 0 0 1-.019-1.126V5.461h-2.93v4.657c-1.105-1.107-3.857-1.063-5.141-.311-.823.485-1.443 1.237-1.873 2.139-.436.907-.651 2.02-.658 3.332.007 1.635.283 2.848 1.051 4.296 1.241 2.344 5.018 2.985 6.965 1.213Zm-5.079-5.646c0-.708.067-1.299.202-1.771.209-.747.664-1.493 1.431-1.754 1.364-.466 2.715.162 3.109.715v6.261c-.707 1.057-2.758.976-3.717.137-.368-.286-.632-.727-.792-1.318-.166-.597-.24-1.35-.233-2.27ZM67.372 9.552h-1.364V8.427c0-.697-.196-2.046-.59-2.506l-2.34 2.276v1.355h-2.776c0-2.307.38-2.574 1.726-2.736l.885-2.263c-3.833-.137-5.541 1.368-5.541 4.999h-2.254l.896 2.493h1.364v9.575h2.93v-9.575h2.776v5.782c.007.833.16 1.548.467 2.133.314.597.756 1.05 1.333 1.374.578.317 1.272.473 2.082.479.904 0 1.684-.15 2.402-.491l-.804-2.245a2.302 2.302 0 0 1-1.063.242c-.356 0-.645-.03-.86-.111a.825.825 0 0 1-.48-.404c-.097-.193-.14-.467-.14-.821v-5.944h2.254l-.903-2.487Zm26.142 7.803c0 .112 0 .224-.006.336a1.77 1.77 0 0 1-.067.341 2.451 2.451 0 0 1-.486.821 2.45 2.45 0 0 1-.829.61c-.325.161-.706.236-1.124.242-.331 0-.632-.062-.897-.186a1.484 1.484 0 0 1-.632-.572c-.154-.255-.234-.585-.24-.983.006-.454.13-.84.362-1.138.234-.292.56-.528.959-.696a5.21 5.21 0 0 1 1.37-.342 12.14 12.14 0 0 1 1.597-.087v1.654h-.007Zm3.023-3.022a7.158 7.158 0 0 0-.24-1.933 4.517 4.517 0 0 0-.817-1.642c-.38-.479-.903-.858-1.56-1.138-.657-.273-1.468-.422-2.451-.429-.958.007-2.138.094-3.077.355l-.959 2.667c.94-.566 2.427-.852 3.508-.852.54.006.976.075 1.308.224.332.143.584.323.756.541.172.218.282.448.35.69a2.7 2.7 0 0 1 .08.672v.199c-1.518-.013-2.82.161-3.907.503-1.087.342-1.916.852-2.494 1.536-.583.678-.878 1.536-.884 2.549 0 .466.086.914.258 1.343.165.429.417.815.749 1.156a3.41 3.41 0 0 0 1.21.809c.473.199 1.026.304 1.64.304.54 0 1.038-.068 1.499-.211.46-.143.866-.323 1.228-.572.363-.236.664-.522.91-.84h.073l.227 1.35h2.795a10.578 10.578 0 0 1-.153-1.33 26.373 26.373 0 0 1-.043-1.592v-4.359h-.007Zm-12.47-4.781h3.102l-4.324 12.062h-2.936l-2.003-6.939-2.027 6.939h-2.93l-2.727-7.617-1.597-4.451 3.102.006 2.592 8.704 2.322-8.698h2.518l2.322 8.698 2.586-8.704Zm47.556-4.091-4.313 6.752-4.318-6.752h-3.249v16.153h2.93v-11.34l4.637 6.745 4.632-6.746V21.62h2.93V5.46h-3.249Zm-33.6 16.159h3.071v-6.255a5.678 5.678 0 0 1 .074-.914c.092-.466.264-.87.51-1.212a2.59 2.59 0 0 1 .94-.796c.239-.124.503-.205.786-.255.061-.162.129-.323.203-.479.184-.404.405-.77.657-1.112.338-.454.639-.728.577-1.225a4.311 4.311 0 0 0-.344-.056c-.11-.013-.233-.013-.381-.013-.448 0-.884.094-1.326.293-.436.186-.83.472-1.18.845a4.102 4.102 0 0 0-.841 1.411h-.074l-.123-2.3h-2.647c.037.522.061 1.125.08 1.753.012.628.024 1.35.024 2.158v8.157h-.006Zm12.199-2.325a9.504 9.504 0 0 0 1.622-.143 10.35 10.35 0 0 0 1.388-.349 9.638 9.638 0 0 0 1.149-.466v2.375a8.421 8.421 0 0 1-1.254.56 9.3 9.3 0 0 1-1.529.392c-.553.099-1.155.142-1.806.149-.491 0-.995-.05-1.517-.143a5.56 5.56 0 0 1-1.523-.535 4.477 4.477 0 0 1-1.327-1.07c-.393-.466-.713-1.056-.94-1.777-.233-.722-.356-1.598-.362-2.63 0-.92.098-1.766.294-2.55.197-.777.51-1.46.94-2.045a4.416 4.416 0 0 1 1.683-1.368c.7-.323 1.542-.491 2.531-.497.762.006 1.437.112 2.033.323.59.211 1.1.503 1.53.883.43.373.786.808 1.068 1.312.277.497.486 1.032.621 1.616.135.578.196 1.17.196 1.785 0 .273 0 .528-.006.777a9.3 9.3 0 0 1-.043.74h-7.85c.043.584.166 1.05.362 1.405.191.354.43.628.725.808.295.18.615.305.959.367.344.056.7.087 1.056.08Zm-.657-7.704c-.479-.006-.891.094-1.241.299-.338.199-.614.522-.811.963-.202.448-.331 1.026-.393 1.748h4.914a5.231 5.231 0 0 0-.227-1.12 3.348 3.348 0 0 0-.473-.963 2.394 2.394 0 0 0-.737-.672c-.301-.174-.639-.248-1.032-.255ZM49.682 9.198c1.246.006 2.29.248 3.145.727.853.485 1.504 1.194 1.953 2.133.442.938.663 2.089.67 3.45-.007 1.362-.228 2.512-.67 3.445-.443.939-1.094 1.647-1.953 2.132-.86.479-1.905.721-3.145.728-1.241-.006-2.285-.249-3.145-.728-.86-.49-1.505-1.2-1.954-2.132-.442-.94-.663-2.083-.67-3.445.007-1.361.228-2.512.67-3.45.449-.94 1.094-1.648 1.954-2.133.86-.485 1.904-.727 3.145-.727Zm0 10.184c.436.006.829-.044 1.179-.15.35-.099.645-.298.897-.572.245-.28.436-.671.565-1.18.135-.51.196-1.163.196-1.972 0-.808-.061-1.467-.196-1.977-.13-.51-.32-.901-.565-1.181a1.88 1.88 0 0 0-.897-.572 3.883 3.883 0 0 0-1.18-.15 3.816 3.816 0 0 0-1.173.15c-.35.1-.645.298-.897.572-.245.273-.436.671-.565 1.181-.129.51-.196 1.169-.196 1.977 0 .809.067 1.461.196 1.971.13.516.32.902.566 1.181.251.28.546.473.896.573.344.105.737.155 1.173.149Zm-15.007-9.47c.007-.36.105-.665.29-.907.183-.249.435-.448.742-.59a4.063 4.063 0 0 1 1.038-.318c.381-.062.762-.1 1.155-.093a7.007 7.007 0 0 1 2.918.628c.411.186.78.385 1.118.61v-2.83c-.639-.33-1.32-.603-2.052-.802a8.816 8.816 0 0 0-2.328-.31c-.768 0-1.505.086-2.199.267a5.898 5.898 0 0 0-1.855.845c-.54.38-.97.864-1.284 1.461-.313.59-.473 1.294-.479 2.114.006.703.13 1.293.357 1.778.233.485.546.896.94 1.213.392.33.835.597 1.326.808.491.211.995.398 1.517.56.522.155 1.026.31 1.524.46.491.149.933.323 1.32.522.393.193.707.441.94.74.227.292.35.659.35 1.1 0 .373-.098.678-.288.92a1.875 1.875 0 0 1-.768.572c-.32.137-.676.23-1.081.287-.4.056-.811.08-1.235.08a8.265 8.265 0 0 1-1.855-.211 7.666 7.666 0 0 1-1.554-.56 7.868 7.868 0 0 1-1.284-.777v2.954c.436.267.928.497 1.462.715a9.63 9.63 0 0 0 1.775.478c.651.118 1.358.18 2.132.187a7.425 7.425 0 0 0 2.162-.324 5.976 5.976 0 0 0 1.787-.895 4.35 4.35 0 0 0 1.223-1.405c.294-.54.448-1.15.454-1.822-.006-.82-.123-1.51-.356-2.089a4.206 4.206 0 0 0-.94-1.436 5.282 5.282 0 0 0-1.327-.945 9.96 9.96 0 0 0-1.517-.616 42.695 42.695 0 0 0-1.517-.441 12.91 12.91 0 0 1-1.327-.435c-.393-.156-.712-.348-.94-.585a1.326 1.326 0 0 1-.344-.907Zm103.379-5.359c-.369.006-.694.081-.971.236a1.71 1.71 0 0 0-.645.628 1.83 1.83 0 0 0-.239.914c0 .324.08.616.227.883.154.261.362.473.639.628.276.162.596.236.964.243.387-.007.719-.081 1.008-.243a1.71 1.71 0 0 0 .645-.628c.153-.267.233-.56.233-.883a1.936 1.936 0 0 0-.246-.914 1.636 1.636 0 0 0-.639-.628c-.27-.155-.602-.23-.976-.236Zm1.486 17.067V10.161c-1.677.566-2.967 1.517-2.967 2.966v8.493h2.967Zm1.696 0h2.973v-7.163c0-.18.012-.354.036-.522.025-.174.062-.323.111-.454.111-.31.276-.609.504-.876.221-.274.491-.491.817-.653a2.36 2.36 0 0 1 1.105-.261c.565 0 1.014.143 1.364.41.344.261.596.628.755 1.088.154.46.234.982.228 1.573v6.864h2.967v-7.224c0-.958-.136-1.772-.381-2.438-.246-.665-.449-1.206-.866-1.616a3.796 3.796 0 0 0-1.401-.89 4.603 4.603 0 0 0-1.585-.279c-.51.006-.976.068-1.4.199a4.434 4.434 0 0 0-1.124.497 4.34 4.34 0 0 0-.848.672 4.003 4.003 0 0 0-.559.727h-.08l-.147-1.821c-.713 0-1.548.093-2.555.298l.055 1.374c.012.603.031 1.25.031 1.946v8.549Z">
	</path>
	<path fill="url(#i149)" fill-rule="evenodd" d="M11.567 1.942c1.72-.927 7.494 1.747 7.42 8.437-.018 1.958-.761 4.495-1.326 5.85-.092.224-.19.448-.295.678l-.13.28c-.35.79-.214 1.23.86.634.087-.05.173-.093.259-.143.393-.218.761-.442 1.1-.672.589-.398 2.352-1.834 3.292-3.245 2.401-3.625 1.867-6.951-1.032-9.792A12.837 12.837 0 0 0 16.61.903c-3.403-.634-4.717.044-5.043 1.039Z" clip-rule="evenodd">
	</path>
	<path fill="url(#i148)" fill-rule="evenodd" d="M9.068 13.5c3.07 1.225 7.186 1.983 10.018 3.326.307.15.602.299.885.46 1.584.933 2.561 2.133 2.358 3.874-.037.336-.123.69-.252 1.063a12.95 12.95 0 0 0 2.23-3.252c.719-1.84-.104-3.593-1.646-5.303-.78-.864-1.738-1.716-2.764-2.562-2.617-2.145-5.707-4.252-7.512-6.416-.553-.659-1.1-1.84-.805-2.748C11.9.947 13.22.269 16.617.904a12.595 12.595 0 0 0-7.439-.05 12.67 12.67 0 0 0-3.98 2.008C3.908 4.043 3.435 5.417 3.52 6.78c.178 2.773 2.666 5.521 5.307 6.622.068.03.154.068.24.1Zm-3.096 1.001c2.862 2.226 5.54 2.586 7.764 4.247 2.088 1.56 2.918 4.513 1.24 6.994-.325.286-.761.417-1.37.473-.398.025-.798.03-1.19.018h-.025C7.022 26.06 2.133 22.453.53 16.957A13.066 13.066 0 0 1 3.57 4.305c-2.162 4.588.651 8.84 2.402 10.196Z" clip-rule="evenodd">
	</path>
	<path fill="url(#i147)" fill-rule="evenodd" d="M5.972 14.507C4.22 13.146 1.408 8.893 3.558 4.311.836 7.749.922 12.095 3.035 15.558c1.548 2.55 3.92 3.015 4.871 5.13 1.02 2.275-.454 4.607 2.519 5.334.694.13 1.406.211 2.125.224 2.255.043 2.906-.33 3.262-2.58.3-1.897-.553-3.774-2.076-4.912-2.224-1.666-4.902-2.027-7.764-4.247Z" clip-rule="evenodd">
	</path>
	<path fill="url(#i146)" d="M17.66 16.23c.498.186.977.378 1.426.59.129.062.252.118.368.18.59-.398 2.353-1.834 3.293-3.245l-.086-.087c-.78-.864-1.739-1.716-2.765-2.562-.294-.242-.601-.485-.902-.727-.031 1.958-.768 4.495-1.333 5.85Z">
	</path>
	<path fill="url(#i145)" d="M3.509 6.779c.178 2.773 2.666 5.521 5.307 6.622l.252.1c1.271.503 2.715.932 4.177 1.354-5.492-2.984-4.687-10.843-1.671-12.913.32-.995 1.64-1.673 5.037-1.038a12.595 12.595 0 0 0-7.439-.05 12.67 12.67 0 0 0-3.98 2.008C3.89 4.043 3.417 5.417 3.509 6.78Z">
	</path>
	<defs>
		<linearGradient id="i149" x1="10.911" x2="22.705" y1="2.381" y2="14.033" gradientUnits="userSpaceOnUse">
			<stop offset="0.2" stop-color="#652400">
			</stop>
			<stop offset="1" stop-color="#D10A11">
			</stop>
		</linearGradient>
		<linearGradient id="i148" x1="15.923" x2="6.315" y1="25.447" y2="1.955" gradientUnits="userSpaceOnUse">
			<stop offset="0.05" stop-color="#E74E0F">
			</stop>
			<stop offset="0.95" stop-color="#FAB900">
			</stop>
		</linearGradient>
		<linearGradient id="i147" x1="4.313" x2="10.824" y1="18.543" y2="14.039" gradientUnits="userSpaceOnUse">
			<stop stop-color="#D10A11">
			</stop>
			<stop offset="0.85" stop-color="#EE7D00">
			</stop>
		</linearGradient>
		<linearGradient id="i146" x1="17.751" x2="22.743" y1="13.642" y2="13.815" gradientUnits="userSpaceOnUse">
			<stop offset="0.25" stop-color="#D10A11" stop-opacity="0">
			</stop>
			<stop offset="1" stop-color="#D10A11" stop-opacity="0.5">
			</stop>
		</linearGradient>
		<linearGradient id="i145" x1="16.417" x2="6.312" y1="0.735" y2="11.822" gradientUnits="userSpaceOnUse">
			<stop offset="0.08" stop-color="#D10A11" stop-opacity="0.5">
			</stop>
			<stop offset="0.8" stop-color="#D10A11" stop-opacity="0">
			</stop>
		</linearGradient>
	</defs>
</svg>
