<svg aria-roledescription="er" role="graphics-document document" viewBox="-4.551120758056641 0 184.30908203125 390" style="max-width: 184.309px; background-color: white;" xmlns:xlink="http://www.w3.org/1999/xlink" xmlns="http://www.w3.org/2000/svg" width="100%" id="my-svg"><style>#my-svg{font-family:"trebuchet ms",verdana,arial,sans-serif;font-size:16px;fill:#000000;}#my-svg .error-icon{fill:#552222;}#my-svg .error-text{fill:#552222;stroke:#552222;}#my-svg .edge-thickness-normal{stroke-width:1px;}#my-svg .edge-thickness-thick{stroke-width:3.5px;}#my-svg .edge-pattern-solid{stroke-dasharray:0;}#my-svg .edge-thickness-invisible{stroke-width:0;fill:none;}#my-svg .edge-pattern-dashed{stroke-dasharray:3;}#my-svg .edge-pattern-dotted{stroke-dasharray:2;}#my-svg .marker{fill:#000000;stroke:#000000;}#my-svg .marker.cross{stroke:#000000;}#my-svg svg{font-family:"trebuchet ms",verdana,arial,sans-serif;font-size:16px;}#my-svg p{margin:0;}#my-svg .entityBox{fill:#cde498;stroke:#13540c;}#my-svg .attributeBoxOdd{fill:#ffffff;stroke:#13540c;}#my-svg .attributeBoxEven{fill:#f2f2f2;stroke:#13540c;}#my-svg .relationshipLabelBox{fill:hsl(78.1578947368, 58.4615384615%, 84.5098039216%);opacity:0.7;background-color:hsl(78.1578947368, 58.4615384615%, 84.5098039216%);}#my-svg .relationshipLabelBox rect{opacity:0.5;}#my-svg .relationshipLine{stroke:#000000;}#my-svg .entityTitleText{text-anchor:middle;font-size:18px;fill:#000000;}#my-svg #MD_PARENT_START{fill:#f5f5f5!important;stroke:#000000!important;stroke-width:1;}#my-svg #MD_PARENT_END{fill:#f5f5f5!important;stroke:#000000!important;stroke-width:1;}#my-svg :root{--mermaid-font-family:"trebuchet ms",verdana,arial,sans-serif;}</style><g/><defs><marker orient="auto" markerHeight="240" markerWidth="190" refY="7" refX="0" id="MD_PARENT_START"><path d="M 18,7 L9,13 L1,7 L9,1 Z"/></marker></defs><defs><marker orient="auto" markerHeight="28" markerWidth="20" refY="7" refX="19" id="MD_PARENT_END"><path d="M 18,7 L9,13 L1,7 L9,1 Z"/></marker></defs><defs><marker orient="auto" markerHeight="18" markerWidth="18" refY="9" refX="0" id="ONLY_ONE_START"><path d="M9,0 L9,18 M15,0 L15,18" fill="none" stroke="gray"/></marker></defs><defs><marker orient="auto" markerHeight="18" markerWidth="18" refY="9" refX="18" id="ONLY_ONE_END"><path d="M3,0 L3,18 M9,0 L9,18" fill="none" stroke="gray"/></marker></defs><defs><marker orient="auto" markerHeight="18" markerWidth="30" refY="9" refX="0" id="ZERO_OR_ONE_START"><circle r="6" cy="9" cx="21" fill="white" stroke="gray"/><path d="M9,0 L9,18" fill="none" stroke="gray"/></marker></defs><defs><marker orient="auto" markerHeight="18" markerWidth="30" refY="9" refX="30" id="ZERO_OR_ONE_END"><circle r="6" cy="9" cx="9" fill="white" stroke="gray"/><path d="M21,0 L21,18" fill="none" stroke="gray"/></marker></defs><defs><marker orient="auto" markerHeight="36" markerWidth="45" refY="18" refX="18" id="ONE_OR_MORE_START"><path d="M0,18 Q 18,0 36,18 Q 18,36 0,18 M42,9 L42,27" fill="none" stroke="gray"/></marker></defs><defs><marker orient="auto" markerHeight="36" markerWidth="45" refY="18" refX="27" id="ONE_OR_MORE_END"><path d="M3,9 L3,27 M9,18 Q27,0 45,18 Q27,36 9,18" fill="none" stroke="gray"/></marker></defs><defs><marker orient="auto" markerHeight="36" markerWidth="57" refY="18" refX="18" id="ZERO_OR_MORE_START"><circle r="6" cy="18" cx="48" fill="white" stroke="gray"/><path d="M0,18 Q18,0 36,18 Q18,36 0,18" fill="none" stroke="gray"/></marker></defs><defs><marker orient="auto" markerHeight="36" markerWidth="57" refY="18" refX="39" id="ZERO_OR_MORE_END"><circle r="6" cy="18" cx="9" fill="white" stroke="gray"/><path d="M21,18 Q39,0 57,18 Q39,36 21,18" fill="none" stroke="gray"/></marker></defs><path style="stroke: gray; fill: none;" marker-start="url(#ZERO_OR_MORE_START)" marker-end="url(#ZERO_OR_MORE_END)" d="M65.498,89L60.567,97.333C55.636,105.667,45.774,122.333,43.809,139C41.844,155.667,47.775,172.333,50.741,180.667L53.706,189" class="er relationshipLine"/><path style="stroke: gray; fill: none;" marker-start="url(#ZERO_OR_ONE_START)" marker-end="url(#ZERO_OR_ONE_END)" d="M118.119,189L121.085,180.667C124.05,172.333,129.981,155.667,128.016,139C126.051,122.333,116.189,105.667,111.258,97.333L106.327,89" class="er relationshipLine"/><g transform="translate(35.91253662109375,20 )" id="entity-Department-74f6ffba-7bf6-526c-85dd-2331966cb85d"><rect height="69" width="100" y="0" x="0" class="er entityBox"/><text style="dominant-baseline: middle; text-anchor: middle; font-size: 12px;" transform="translate(50,12)" y="0" x="0" id="text-entity-Department-74f6ffba-7bf6-526c-85dd-2331966cb85d" class="er entityLabel">Department</text><rect height="23" width="38.93835957845052" y="24" x="0" class="er attributeBoxOdd"/><text style="dominant-baseline: middle; font-size: 10.2px;" transform="translate(5,35.5)" y="0" x="0" id="text-entity-Department-74f6ffba-7bf6-526c-85dd-2331966cb85d-attr-1-type" class="er entityLabel">Int</text><rect height="23" width="36.94121297200521" y="24" x="38.93835957845052" class="er attributeBoxOdd"/><text style="dominant-baseline: middle; font-size: 10.2px;" transform="translate(43.93835957845052,35.5)" y="0" x="0" id="text-entity-Department-74f6ffba-7bf6-526c-85dd-2331966cb85d-attr-1-name" class="er entityLabel">id</text><rect height="23" width="24.12042744954427" y="24" x="75.87957255045573" class="er attributeBoxOdd"/><text style="dominant-baseline: middle; font-size: 10.2px;" transform="translate(80.87957255045573,35.5)" y="0" x="0" id="text-entity-Department-74f6ffba-7bf6-526c-85dd-2331966cb85d-attr-1-comment" class="er entityLabel">🗝️</text><rect height="22" width="38.93835957845052" y="47" x="0" class="er attributeBoxEven"/><text style="dominant-baseline: middle; font-size: 10.2px;" transform="translate(5,58)" y="0" x="0" id="text-entity-Department-74f6ffba-7bf6-526c-85dd-2331966cb85d-attr-2-type" class="er entityLabel">String</text><rect height="22" width="36.94121297200521" y="47" x="38.93835957845052" class="er attributeBoxEven"/><text style="dominant-baseline: middle; font-size: 10.2px;" transform="translate(43.93835957845052,58)" y="0" x="0" id="text-entity-Department-74f6ffba-7bf6-526c-85dd-2331966cb85d-attr-2-name" class="er entityLabel">name</text><rect height="22" width="24.12042744954427" y="47" x="75.87957255045573" class="er attributeBoxEven"/><text style="dominant-baseline: middle; font-size: 10.2px;" transform="translate(80.87957255045573,58)" y="0" x="0" id="text-entity-Department-74f6ffba-7bf6-526c-85dd-2331966cb85d-attr-2-comment" class="er entityLabel"/></g><g transform="translate(20,189 )" id="entity-Employee-c527a5e7-c82f-5591-9a78-fbfc19a3c96b"><rect height="181" width="131.8250732421875" y="0" x="0" class="er entityBox"/><text style="dominant-baseline: middle; text-anchor: middle; font-size: 12px;" transform="translate(65.91253662109375,12)" y="0" x="0" id="text-entity-Employee-c527a5e7-c82f-5591-9a78-fbfc19a3c96b" class="er entityLabel">Employee</text><rect height="23" width="54.095550537109375" y="24" x="0" class="er attributeBoxOdd"/><text style="dominant-baseline: middle; font-size: 10.2px;" transform="translate(5,35.5)" y="0" x="0" id="text-entity-Employee-c527a5e7-c82f-5591-9a78-fbfc19a3c96b-attr-1-type" class="er entityLabel">Int</text><rect height="23" width="55.151397705078125" y="24" x="54.095550537109375" class="er attributeBoxOdd"/><text style="dominant-baseline: middle; font-size: 10.2px;" transform="translate(59.095550537109375,35.5)" y="0" x="0" id="text-entity-Employee-c527a5e7-c82f-5591-9a78-fbfc19a3c96b-attr-1-name" class="er entityLabel">id</text><rect height="23" width="22.578125" y="24" x="109.2469482421875" class="er attributeBoxOdd"/><text style="dominant-baseline: middle; font-size: 10.2px;" transform="translate(114.2469482421875,35.5)" y="0" x="0" id="text-entity-Employee-c527a5e7-c82f-5591-9a78-fbfc19a3c96b-attr-1-comment" class="er entityLabel">🗝️</text><rect height="22" width="54.095550537109375" y="47" x="0" class="er attributeBoxEven"/><text style="dominant-baseline: middle; font-size: 10.2px;" transform="translate(5,58)" y="0" x="0" id="text-entity-Employee-c527a5e7-c82f-5591-9a78-fbfc19a3c96b-attr-2-type" class="er entityLabel">String</text><rect height="22" width="55.151397705078125" y="47" x="54.095550537109375" class="er attributeBoxEven"/><text style="dominant-baseline: middle; font-size: 10.2px;" transform="translate(59.095550537109375,58)" y="0" x="0" id="text-entity-Employee-c527a5e7-c82f-5591-9a78-fbfc19a3c96b-attr-2-name" class="er entityLabel">firstName</text><rect height="22" width="22.578125" y="47" x="109.2469482421875" class="er attributeBoxEven"/><text style="dominant-baseline: middle; font-size: 10.2px;" transform="translate(114.2469482421875,58)" y="0" x="0" id="text-entity-Employee-c527a5e7-c82f-5591-9a78-fbfc19a3c96b-attr-2-comment" class="er entityLabel"/><rect height="22" width="54.095550537109375" y="69" x="0" class="er attributeBoxOdd"/><text style="dominant-baseline: middle; font-size: 10.2px;" transform="translate(5,80)" y="0" x="0" id="text-entity-Employee-c527a5e7-c82f-5591-9a78-fbfc19a3c96b-attr-3-type" class="er entityLabel">String</text><rect height="22" width="55.151397705078125" y="69" x="54.095550537109375" class="er attributeBoxOdd"/><text style="dominant-baseline: middle; font-size: 10.2px;" transform="translate(59.095550537109375,80)" y="0" x="0" id="text-entity-Employee-c527a5e7-c82f-5591-9a78-fbfc19a3c96b-attr-3-name" class="er entityLabel">lastName</text><rect height="22" width="22.578125" y="69" x="109.2469482421875" class="er attributeBoxOdd"/><text style="dominant-baseline: middle; font-size: 10.2px;" transform="translate(114.2469482421875,80)" y="0" x="0" id="text-entity-Employee-c527a5e7-c82f-5591-9a78-fbfc19a3c96b-attr-3-comment" class="er entityLabel"/><rect height="22" width="54.095550537109375" y="91" x="0" class="er attributeBoxEven"/><text style="dominant-baseline: middle; font-size: 10.2px;" transform="translate(5,102)" y="0" x="0" id="text-entity-Employee-c527a5e7-c82f-5591-9a78-fbfc19a3c96b-attr-4-type" class="er entityLabel">DateTime</text><rect height="22" width="55.151397705078125" y="91" x="54.095550537109375" class="er attributeBoxEven"/><text style="dominant-baseline: middle; font-size: 10.2px;" transform="translate(59.095550537109375,102)" y="0" x="0" id="text-entity-Employee-c527a5e7-c82f-5591-9a78-fbfc19a3c96b-attr-4-name" class="er entityLabel">hireDate</text><rect height="22" width="22.578125" y="91" x="109.2469482421875" class="er attributeBoxEven"/><text style="dominant-baseline: middle; font-size: 10.2px;" transform="translate(114.2469482421875,102)" y="0" x="0" id="text-entity-Employee-c527a5e7-c82f-5591-9a78-fbfc19a3c96b-attr-4-comment" class="er entityLabel"/><rect height="23" width="54.095550537109375" y="113" x="0" class="er attributeBoxOdd"/><text style="dominant-baseline: middle; font-size: 10.2px;" transform="translate(5,124.5)" y="0" x="0" id="text-entity-Employee-c527a5e7-c82f-5591-9a78-fbfc19a3c96b-attr-5-type" class="er entityLabel">String</text><rect height="23" width="55.151397705078125" y="113" x="54.095550537109375" class="er attributeBoxOdd"/><text style="dominant-baseline: middle; font-size: 10.2px;" transform="translate(59.095550537109375,124.5)" y="0" x="0" id="text-entity-Employee-c527a5e7-c82f-5591-9a78-fbfc19a3c96b-attr-5-name" class="er entityLabel">phone</text><rect height="23" width="22.578125" y="113" x="109.2469482421875" class="er attributeBoxOdd"/><text style="dominant-baseline: middle; font-size: 10.2px;" transform="translate(114.2469482421875,124.5)" y="0" x="0" id="text-entity-Employee-c527a5e7-c82f-5591-9a78-fbfc19a3c96b-attr-5-comment" class="er entityLabel">❓</text><rect height="23" width="54.095550537109375" y="136" x="0" class="er attributeBoxEven"/><text style="dominant-baseline: middle; font-size: 10.2px;" transform="translate(5,147.5)" y="0" x="0" id="text-entity-Employee-c527a5e7-c82f-5591-9a78-fbfc19a3c96b-attr-6-type" class="er entityLabel">String</text><rect height="23" width="55.151397705078125" y="136" x="54.095550537109375" class="er attributeBoxEven"/><text style="dominant-baseline: middle; font-size: 10.2px;" transform="translate(59.095550537109375,147.5)" y="0" x="0" id="text-entity-Employee-c527a5e7-c82f-5591-9a78-fbfc19a3c96b-attr-6-name" class="er entityLabel">address</text><rect height="23" width="22.578125" y="136" x="109.2469482421875" class="er attributeBoxEven"/><text style="dominant-baseline: middle; font-size: 10.2px;" transform="translate(114.2469482421875,147.5)" y="0" x="0" id="text-entity-Employee-c527a5e7-c82f-5591-9a78-fbfc19a3c96b-attr-6-comment" class="er entityLabel">❓</text><rect height="22" width="54.095550537109375" y="159" x="0" class="er attributeBoxOdd"/><text style="dominant-baseline: middle; font-size: 10.2px;" transform="translate(5,170)" y="0" x="0" id="text-entity-Employee-c527a5e7-c82f-5591-9a78-fbfc19a3c96b-attr-7-type" class="er entityLabel">Boolean</text><rect height="22" width="55.151397705078125" y="159" x="54.095550537109375" class="er attributeBoxOdd"/><text style="dominant-baseline: middle; font-size: 10.2px;" transform="translate(59.095550537109375,170)" y="0" x="0" id="text-entity-Employee-c527a5e7-c82f-5591-9a78-fbfc19a3c96b-attr-7-name" class="er entityLabel">active</text><rect height="22" width="22.578125" y="159" x="109.2469482421875" class="er attributeBoxOdd"/><text style="dominant-baseline: middle; font-size: 10.2px;" transform="translate(114.2469482421875,170)" y="0" x="0" id="text-entity-Employee-c527a5e7-c82f-5591-9a78-fbfc19a3c96b-attr-7-comment" class="er entityLabel"/></g><rect height="14" width="57.177734375" y="130.29112243652344" x="15.44887924194336" class="er relationshipLabelBox"/><text style="text-anchor: middle; dominant-baseline: middle; font-size: 12px;" y="137.29112243652344" x="44.03774642944336" id="rel1" class="er relationshipLabel">employees</text><rect height="14" width="63.705078125" y="130.2911376953125" x="95.93472290039062" class="er relationshipLabelBox"/><text style="text-anchor: middle; dominant-baseline: middle; font-size: 12px;" y="137.2911376953125" x="127.78726196289062" id="rel2" class="er relationshipLabel">department</text></svg>